<?xml version="1.0" encoding="UTF-8"?>
<svg width="348px" height="44px" viewBox="0 0 348 44" version="1.1" xmlns="http://www.w3.org/2000/svg" xmlns:xlink="http://www.w3.org/1999/xlink">
    <title>magic v</title>
    <g id="magic-v" stroke="none" stroke-width="1" fill="none" fill-rule="evenodd">
        <rect id="矩形" x="0" y="0" width="348" height="44"></rect>
        <g id="honor-magic-v" fill="#000000" fill-rule="nonzero">
            <polygon id="路径" points="190.928571 32.8114286 190.928571 0.480857143 195.949286 0.480857143 206.91 27.2391429 207.009 26.9704286 217.8 0.480857143 222.820714 0.480857143 222.820714 32.8114286 219.539571 32.8114286 219.539571 4.72371429 219.440571 4.72371429 207.801 32.8114286 206.061429 32.8114286 194.365286 4.72371429 194.280429 4.72371429 194.280429 32.8114286"></polygon>
            <path d="M235.931143,33.363 C233.971185,33.4626917 232.044591,32.8272183 230.528571,31.581 C229.184055,30.3947802 228.450552,28.6624635 228.534429,26.8714286 C228.406903,24.9701112 229.2673,23.1370915 230.811429,22.0204286 C232.195072,21.0879369 233.770882,20.4788815 235.422,20.2384286 C237.223395,19.9976155 239.036161,19.8512723 240.852857,19.8 L243.596571,19.8 L243.596571,19.1211429 C243.72523,17.607138 243.212068,16.1087072 242.182286,14.9914286 C241.008537,13.9812311 239.484546,13.4732342 237.939429,13.5771429 C236.73119,13.5719033 235.534021,13.8074909 234.417857,14.2701429 C233.359949,14.6780455 232.397171,15.2990371 231.589286,16.0945714 L229.849714,14.0438571 C230.845294,13.0392318 232.040025,12.2539854 233.357143,11.7385714 C234.902481,11.156844 236.542928,10.8690464 238.194,10.89 C240.366556,10.8058705 242.494706,11.5202847 244.176429,12.8982857 C245.784602,14.365469 246.642483,16.4815737 246.51,18.6544286 L246.51,28.017 C246.479484,29.6232099 246.602616,31.2286581 246.877714,32.8114286 L244.049143,32.8114286 C243.915641,32.0720617 243.821224,31.3261687 243.766286,30.5768571 C243.766286,29.9734286 243.766286,29.5632857 243.766286,29.3464286 L243.681429,29.3464286 C242.860511,30.6130951 241.744231,31.6614275 240.428571,32.4012857 C239.028538,33.0787409 237.485799,33.4086349 235.931143,33.363 L235.931143,33.363 Z M236.751429,30.8031429 C238.637038,30.8920067 240.465158,30.1410793 241.743857,28.7524286 C242.984948,27.3798961 243.648608,25.5814288 243.596571,23.7317143 L243.596571,22.1335714 L242.691429,22.1335714 C240.024922,22.0619226 237.362071,22.3763201 234.785571,23.067 C233.003913,23.378737 231.710578,24.9355301 231.730714,26.7441429 C231.629653,27.948621 232.166148,29.1181807 233.145,29.8272857 C234.220289,30.510945 235.478119,30.851299 236.751429,30.8031429 Z" id="形状"></path>
            <path d="M262.548,43.8428571 C260.605789,43.8458688 258.682509,43.4612128 256.890857,42.7114286 C255.142483,41.9934124 253.562695,40.9193494 252.252,39.5575714 L254.571429,37.1108571 C256.589599,39.5196233 259.547782,40.9420249 262.689429,41.0142857 C265.046109,41.2267406 267.374626,40.3762355 269.039571,38.6948571 C270.434811,36.9840575 271.14989,34.8186765 271.047857,32.6134286 L271.047857,28.611 L270.963,28.611 C270.118558,29.9333537 268.924033,30.9956985 267.512143,31.68 C266.075326,32.413947 264.486674,32.8014233 262.873286,32.8114286 C259.895001,32.9491729 256.992445,31.8485565 254.854286,29.7707143 C252.805887,27.6943661 251.705637,24.8644197 251.813571,21.9497143 C251.749091,19.0164539 252.870926,16.1812693 254.925,14.0862857 C257.009199,11.9537218 259.892932,10.7940713 262.873286,10.89 C264.485601,10.8950989 266.074312,11.2777458 267.512143,12.0072857 C268.933187,12.7108772 270.12866,13.7985618 270.963,15.147 L271.047857,15.147 L271.047857,11.4415714 L274.159286,11.4415714 L274.159286,32.6558571 C274.320727,35.6719959 273.23679,38.6221453 271.161,40.8162857 C268.821077,42.9544991 265.71113,44.0473213 262.548,43.8428571 L262.548,43.8428571 Z M263.198571,30.2374286 C265.407624,30.3138367 267.549034,29.4685434 269.110286,27.9038571 C270.659863,26.3059128 271.492167,24.146007 271.415571,21.9214286 C271.44804,19.7203681 270.591429,17.5992362 269.039571,16.038 C267.533776,14.4189779 265.409158,13.5187157 263.198571,13.563 C260.985115,13.4700222 258.841402,14.3481696 257.329286,15.9672857 C255.838085,17.5847084 255.040841,19.7225403 255.108857,21.9214286 C255.045855,24.1100953 255.831301,26.2384017 257.301,27.8614286 C258.839623,29.4486087 260.991454,30.2897319 263.198571,30.1667143 L263.198571,30.2374286 Z" id="形状"></path>
            <path d="M282.687429,5.41672415 C282.113447,5.41845761 281.562927,5.18907415 281.16,4.78028571 C280.732297,4.37631806 280.491555,3.81287923 280.495286,3.22457143 C280.488085,2.63557016 280.729397,2.07079673 281.16,1.66885714 C281.562927,1.26006871 282.113447,1.03068524 282.687429,1.03241871 C283.265067,1.03318055 283.819063,1.26189468 284.229,1.66885714 C284.655868,2.07225523 284.892195,2.63738568 284.879571,3.22457143 C284.888692,3.81108774 284.652931,4.37486344 284.229,4.78028571 C283.819063,5.18724818 283.265067,5.41596231 282.687429,5.41672415 L282.687429,5.41672415 Z M281.145857,32.8114286 L281.145857,11.4415714 L284.271429,11.4415714 L284.271429,32.8114286 L281.145857,32.8114286 Z" id="形状"></path>
            <path d="M301.242857,33.363 C298.180242,33.4837988 295.203061,32.3379422 293.011714,30.195 C290.884247,28.061955 289.73268,25.1446527 289.829571,22.1335714 C289.727564,19.1216041 290.879905,16.2023401 293.011714,14.0721429 C295.196957,11.9182391 298.177038,10.7661459 301.242857,10.89 C302.77893,10.8940331 304.296912,11.2217244 305.697857,11.8517143 C307.085249,12.4398882 308.290988,13.3869065 309.191143,14.5954286 L306.772714,16.335 C306.218692,15.4621258 305.436066,14.757762 304.509857,14.2984286 C303.508255,13.7533588 302.383047,13.4757101 301.242857,13.4922857 C299.009853,13.4071786 296.850881,14.3007243 295.331143,15.939 C293.79558,17.6283517 292.983213,19.8522066 293.068286,22.1335714 C292.998231,24.4023851 293.815009,26.6092071 295.345286,28.2857143 C296.861005,29.9197319 299.015916,30.8085677 301.242857,30.7182857 C302.522123,30.7773538 303.792006,30.4733664 304.905857,29.8414286 C305.729425,29.3367647 306.457212,28.6903745 307.055571,27.9321429 L309.360857,29.7 C308.33408,31.072764 306.928006,32.1150286 305.316,32.6982857 C304.001165,33.1305328 302.626895,33.354806 301.242857,33.363 L301.242857,33.363 Z" id="路径"></path>
            <polygon id="路径" points="331.692429 32.8114286 319.359857 0.480857143 322.923857 0.480857143 333.432 28.5685714 333.516857 28.5685714 344.025 0.480857143 347.546571 0.480857143 335.185714 32.8114286"></polygon>
            <polygon id="路径" points="18.5978571 0.438428571 24.3681429 0.438428571 24.3681429 32.8114286 18.5978571 32.8114286 18.5978571 19.3332857 5.77028571 19.3332857 5.77028571 32.8114286 0 32.8114286 0 0.438428571 5.77028571 0.438428571 5.77028571 13.563 18.5978571 13.563"></polygon>
            <polygon id="路径" points="91.7447143 20.6485714 77.7432857 0.438428571 73.1468571 0.438428571 73.1468571 32.8114286 78.9171429 32.8114286 78.9171429 12.5164286 92.9751429 32.8114286 97.5008571 32.8114286 97.5008571 0.438428571 91.7447143 0.438428571"></polygon>
            <path d="M121.897286,-6.05600733e-06 C115.173419,-0.00572000855 109.108712,4.04099296 106.532957,10.2519427 C103.957202,16.4628925 105.378056,23.6139574 110.132549,28.3684506 C114.887043,33.1229439 122.038108,34.5437981 128.249057,31.9680429 C134.460007,29.3922876 138.50672,23.3275807 138.501006,16.6037143 C138.501006,12.2001355 136.751685,7.97691577 133.637885,4.86311532 C130.524084,1.74931488 126.300865,-6.05600733e-06 121.897286,-6.05600733e-06 Z M121.897286,27.4512857 C115.906337,27.4512857 111.049714,22.5946626 111.049714,16.6037143 C111.049714,10.612766 115.906337,5.75614286 121.897286,5.75614286 C127.888234,5.75614286 132.744857,10.612766 132.744857,16.6037143 C132.744857,19.4806691 131.601991,22.2397913 129.567677,24.2741056 C127.533363,26.3084199 124.774241,27.4512857 121.897286,27.4512857 Z" id="形状"></path>
            <path d="M161.723571,21.0162857 C166.673389,19.4430477 169.738425,14.4974596 168.944691,9.36464723 C168.150957,4.23183488 163.735247,0.443062916 158.541429,0.438428571 L146.293714,0.438428571 L146.293714,32.8114286 L152.049857,32.8114286 L152.049857,18.3857143 L164.057143,32.8114286 L171.538714,32.8114286 L161.723571,21.0162857 Z M152.049857,15.741 L152.049857,6.20871429 L158.470714,6.20871429 C160.173493,6.20871429 161.746926,7.11713595 162.598315,8.59178569 C163.449705,10.0664354 163.449705,11.8832788 162.598315,13.3579286 C161.746926,14.8325783 160.173493,15.741 158.470714,15.741 L152.049857,15.741 Z" id="形状"></path>
            <path d="M48.7504286,-6.05600733e-06 C42.0265622,-0.00572000855 35.9618553,4.04099296 33.3861,10.2519427 C30.8103447,16.4628925 32.231199,23.6139574 36.9856923,28.3684506 C41.7401855,33.1229439 48.8912504,34.5437981 55.1022001,31.9680429 C61.3131499,29.3922876 65.3598629,23.3275807 65.3541489,16.6037143 C65.3541489,7.4337361 57.9204068,-6.05600733e-06 48.7504286,-6.05600733e-06 Z M48.7504286,27.451295 C42.7594803,27.451295 37.9028571,22.5946626 37.9028571,16.6037143 C37.9028571,10.612766 42.7594803,5.75614286 48.7504286,5.75614286 C54.7413768,5.75614286 59.5980093,10.612766 59.5980093,16.6037143 C59.6017598,19.4818201 58.4601013,22.2431273 56.4249715,24.2782572 C54.3898416,26.313387 51.6285343,27.4550455 48.7504286,27.451295 L48.7504286,27.451295 Z" id="形状"></path>
        </g>
    </g>
</svg>