<svg xmlns="http://www.w3.org/2000/svg" viewBox="0 0 468.23 45.62"><g id="图层_2" data-name="图层 2"><g id="图层_1-2" data-name="图层 1"><polygon points="18.65 2.16 24.43 2.16 24.43 34.63 18.65 34.63 18.65 21.1 5.78 21.1 5.78 34.63 0 34.63 0 2.16 5.78 2.16 5.78 15.32 18.65 15.32 18.65 2.16"/><polygon points="92.01 22.42 77.97 2.16 73.36 2.16 73.36 34.63 79.14 34.63 79.14 14.27 93.25 34.63 97.79 34.63 97.79 2.16 92.01 2.16 92.01 22.42"/><path d="M122.25,1.72a16.66,16.66,0,1,0,16.66,16.65A16.65,16.65,0,0,0,122.25,1.72Zm0,27.52a10.87,10.87,0,1,1,10.87-10.87A10.87,10.87,0,0,1,122.25,29.24Z"/><path d="M162.19,22.79A10.57,10.57,0,0,0,159,2.16h-12.3V34.63h5.78V20.18l12,14.45h7.52Zm-9.7-5.28V7.94h6.44a4.79,4.79,0,0,1,0,9.57Z"/><path d="M48.89,1.72A16.66,16.66,0,1,0,65.55,18.37,16.65,16.65,0,0,0,48.89,1.72Zm0,27.52A10.87,10.87,0,1,1,59.77,18.37,10.87,10.87,0,0,1,48.89,29.24Z"/><path d="M191.54,34.63V2.2h5l11,26.84.09-.28L218.47,2.2h5V34.63h-3.3V6.46h-.09L208.4,34.63h-1.74L194.93,6.46h-.09V34.63Z"/><path d="M236.61,35.18a7.89,7.89,0,0,1-5.36-1.79,5.94,5.94,0,0,1-2.06-4.72c.06-2.29.82-3.91,2.29-4.88A11.24,11.24,0,0,1,236.11,22c1.61-.23,3.43-.39,5.45-.48l2.74-.05v-.69a5.44,5.44,0,0,0-1.46-4.14,6,6,0,0,0-4.26-1.4,9.29,9.29,0,0,0-3.53.69,8.58,8.58,0,0,0-2.84,1.83l-1.74-2.06A10.06,10.06,0,0,1,234,13.49a13.34,13.34,0,0,1,4.86-.85,8.84,8.84,0,0,1,6,2,7.19,7.19,0,0,1,2.34,5.77v9.39a26.89,26.89,0,0,0,.36,4.81h-2.79a18,18,0,0,1-.28-2.25c0-.61,0-1,0-1.23h-.09a8.69,8.69,0,0,1-7.79,4Zm.82-2.57a6.43,6.43,0,0,0,5-2.06,7.23,7.23,0,0,0,1.85-5v-1.6h-.91a27.61,27.61,0,0,0-7.93.94q-3.06.93-3.06,3.68a3.46,3.46,0,0,0,1.46,3.1A6.32,6.32,0,0,0,237.43,32.61Z"/><path d="M263.31,45.62a14.31,14.31,0,0,1-5.65-1.15A13.46,13.46,0,0,1,253,41.31l2.24-2.38a10.41,10.41,0,0,0,3.57,2.82,10.22,10.22,0,0,0,4.63,1.12q4.35,0,6.37-2.34a9,9,0,0,0,2-6.09v-4h-.09a8.38,8.38,0,0,1-3.46,3.07,10.24,10.24,0,0,1-4.65,1.15,10.87,10.87,0,0,1-8-3.05,10.63,10.63,0,0,1-3-7.85,10.89,10.89,0,0,1,3.11-7.88,10.64,10.64,0,0,1,8-3.21,10.28,10.28,0,0,1,4.65,1.12,8.43,8.43,0,0,1,3.46,3.14h.09V13.19H275V34.44a11.06,11.06,0,0,1-3,8.18Q269,45.62,263.31,45.62ZM264,32a8,8,0,0,0,5.94-2.34,8.15,8.15,0,0,0,2.31-6,8.22,8.22,0,0,0-2.38-5.9A7.84,7.84,0,0,0,264,15.25a7.6,7.6,0,0,0-5.88,2.41,8.46,8.46,0,0,0-2.22,6,8.43,8.43,0,0,0,2.2,6A7.62,7.62,0,0,0,264,32Z"/><path d="M283.51,7.15A2.13,2.13,0,0,1,282,6.5,2,2,0,0,1,281.31,5,2.07,2.07,0,0,1,282,3.39a2.12,2.12,0,0,1,1.53-.64,2.16,2.16,0,0,1,1.54.64A2.1,2.1,0,0,1,285.71,5a2.06,2.06,0,0,1-.66,1.55A2.17,2.17,0,0,1,283.51,7.15ZM282,34.63V13.19h3.12V34.63Z"/><path d="M302.11,35.18A11.16,11.16,0,0,1,293.84,32a11,11,0,0,1-3.19-8.08,11,11,0,0,1,3.19-8.09,11.19,11.19,0,0,1,8.27-3.18,11,11,0,0,1,4.46,1,8.66,8.66,0,0,1,3.51,2.75l-2.43,1.74a6,6,0,0,0-2.27-2,6.75,6.75,0,0,0-3.23-.8,7.72,7.72,0,0,0-5.93,2.45A8.82,8.82,0,0,0,294,23.91a8.74,8.74,0,0,0,2.25,6.18,7.65,7.65,0,0,0,5.91,2.43,6.79,6.79,0,0,0,3.66-.87,7.82,7.82,0,0,0,2.15-1.92l2.34,1.74a9,9,0,0,1-4.06,3A13.29,13.29,0,0,1,302.11,35.18Z"/><path d="M314.15,34.63V2.2h9.67a13.58,13.58,0,0,1,7.42,1.92c2,1.28,3,3.41,3,6.37A6.76,6.76,0,0,1,332.68,15a7.41,7.41,0,0,1-4.15,2.5v.09a8.33,8.33,0,0,1,5.29,2.52,7.8,7.8,0,0,1,2,5.59,7.76,7.76,0,0,1-3.29,6.53,14.44,14.44,0,0,1-8.8,2.45Zm3.3-18.23h6.64A8.39,8.39,0,0,0,328.92,15a4.81,4.81,0,0,0,2-4.3,4.75,4.75,0,0,0-2.15-4.31A10.38,10.38,0,0,0,323.18,5h-5.73Zm0,15.39h6.14A12,12,0,0,0,330,30.23a5.22,5.22,0,0,0,2.52-4.76,5.58,5.58,0,0,0-2.15-4.77,10.24,10.24,0,0,0-6.19-1.6h-6.73Z"/><path d="M351.8,35.18A11.09,11.09,0,0,1,343.63,32a10.86,10.86,0,0,1-3.23-8.06,10.86,10.86,0,0,1,3.23-8.06,12.07,12.07,0,0,1,16.39,0,10.86,10.86,0,0,1,3.23,8.06A10.86,10.86,0,0,1,360,32,11.16,11.16,0,0,1,351.8,35.18Zm0-2.66a7.67,7.67,0,0,0,5.89-2.45A8.72,8.72,0,0,0,360,23.91a8.79,8.79,0,0,0-2.26-6.18,7.63,7.63,0,0,0-5.89-2.48,7.53,7.53,0,0,0-5.86,2.48,8.82,8.82,0,0,0-2.25,6.18A8.73,8.73,0,0,0,346,30.07,7.61,7.61,0,0,0,351.8,32.52Z"/><path d="M378.64,35.18A11.09,11.09,0,0,1,370.47,32a10.86,10.86,0,0,1-3.23-8.06,10.86,10.86,0,0,1,3.23-8.06,12.07,12.07,0,0,1,16.39,0,10.86,10.86,0,0,1,3.23,8.06A10.86,10.86,0,0,1,386.86,32,11.16,11.16,0,0,1,378.64,35.18Zm0-2.66a7.67,7.67,0,0,0,5.89-2.45,8.72,8.72,0,0,0,2.26-6.16,8.79,8.79,0,0,0-2.26-6.18,7.63,7.63,0,0,0-5.89-2.48,7.53,7.53,0,0,0-5.86,2.48,8.82,8.82,0,0,0-2.25,6.18,8.73,8.73,0,0,0,2.27,6.16A7.61,7.61,0,0,0,378.64,32.52Z"/><path d="M395.72,34.63V0h3.12V22.86H399l9.89-9.67h4.49L402.55,23l11.91,11.64h-4.58L399,23.36h-.14V34.63Z"/><path d="M434.84,34.63V6.27l-5.86,5L427,9l8.25-6.78h2.93V34.63Z"/><path d="M457.69,35.45a10.43,10.43,0,0,1-7.55-2.86,9.74,9.74,0,0,1-3-7.35,12.74,12.74,0,0,1,.78-4.42,25.23,25.23,0,0,1,2.15-4.38L458.93,2.2h3.8l-9.11,14.15.09.09a5.38,5.38,0,0,1,2-.87,11.22,11.22,0,0,1,2.61-.32,9.61,9.61,0,0,1,7.1,2.8,9.74,9.74,0,0,1,2.79,7.19,9.74,9.74,0,0,1-3,7.35A10.44,10.44,0,0,1,457.69,35.45Zm0-2.79a6.94,6.94,0,0,0,5.2-2.11,7.33,7.33,0,0,0,2-5.31A7.32,7.32,0,0,0,463,20a7.76,7.76,0,0,0-10.53,0,7.28,7.28,0,0,0-2,5.27,7.33,7.33,0,0,0,2,5.31A6.92,6.92,0,0,0,457.69,32.66Z"/></g></g></svg>