<svg xmlns="http://www.w3.org/2000/svg" viewBox="0 0 255.44 44"><defs><style>.cls-1{opacity:0;}</style></defs><g id="图层_2" data-name="图层 2"><g id="图层_1-2" data-name="图层 1"><path d="M198.73,35.13l12.58-18L199.84.87h4.36l9.38,13.84L222.92.87h4.17L215.71,17.18l12.58,18h-4.35L213.49,19.69,203.08,35.13Z"/><path d="M244.46,36a11.48,11.48,0,0,1-7.8-2.78,9,9,0,0,1-3.19-7.09,9.5,9.5,0,0,1,1.82-5.83A8.91,8.91,0,0,1,240,17v-.09A7.25,7.25,0,0,1,236.23,14a8.42,8.42,0,0,1-1.45-4.82,8.84,8.84,0,0,1,1.3-4.79,8.92,8.92,0,0,1,3.54-3.21A10.43,10.43,0,0,1,244.46,0a9.8,9.8,0,0,1,6.87,2.56,8.52,8.52,0,0,1,2.8,6.58A8.42,8.42,0,0,1,252.68,14,7.27,7.27,0,0,1,249,16.89V17a8.62,8.62,0,0,1,4.66,3.29,9.63,9.63,0,0,1,1.82,5.86,9,9,0,0,1-3.19,7.09A11.48,11.48,0,0,1,244.46,36Zm0-3A7.33,7.33,0,0,0,249.88,31,7.12,7.12,0,0,0,252,25.74a6.91,6.91,0,0,0-2.08-5.13,8.25,8.25,0,0,0-10.84,0A6.87,6.87,0,0,0,237,25.74,7.08,7.08,0,0,0,239,31,7.3,7.3,0,0,0,244.46,33.05Zm0-17.57a6.21,6.21,0,0,0,4.47-1.74,5.84,5.84,0,0,0,1.82-4.4A6.23,6.23,0,0,0,249,4.77a6.47,6.47,0,0,0-9,0,6.2,6.2,0,0,0-1.8,4.57,5.84,5.84,0,0,0,1.82,4.4A6.22,6.22,0,0,0,244.46,15.48Z"/><polygon points="19.7 0.83 25.81 0.83 25.81 35.13 19.7 35.13 19.7 20.84 6.11 20.84 6.11 35.13 0 35.13 0 0.83 6.11 0.83 6.11 14.73 19.7 14.73 19.7 0.83"/><polygon points="97.2 22.24 82.37 0.83 77.5 0.83 77.5 35.13 83.61 35.13 83.61 13.62 98.51 35.13 103.31 35.13 103.31 0.83 97.2 0.83 97.2 22.24"/><path d="M129.15.36A17.6,17.6,0,1,0,146.75,18,17.6,17.6,0,0,0,129.15.36Zm0,29.08A11.49,11.49,0,1,1,140.64,18,11.48,11.48,0,0,1,129.15,29.44Z"/><path d="M171.35,22.63A11.17,11.17,0,0,0,168,.83H155v34.3h6.11V19.87l12.72,15.26h7.94ZM161.11,17V6.94h6.8a5,5,0,1,1,0,10.1Z"/><path d="M51.66.36A17.6,17.6,0,1,0,69.25,18,17.6,17.6,0,0,0,51.66.36Zm0,29.08A11.49,11.49,0,1,1,63.14,18,11.48,11.48,0,0,1,51.66,29.44Z"/><rect class="cls-1" width="255.44" height="44"/></g></g></svg>